<svg width="66" height="64" viewBox="0 0 66 64" fill="none" xmlns="http://www.w3.org/2000/svg">
<path d="M32.7911 14.6816C33.2421 16.2245 33.2562 18.0407 32.8092 20.11C32.2617 22.6728 30.7372 24.9024 28.2869 26.7564C23.8511 30.1008 19.9943 30.2452 15.7706 27.2112C14.095 26.0081 13.0192 24.3748 12.1039 22.7947C12.0833 22.7553 12.0735 22.7217 12.0696 22.6774C12.0563 22.663 12.049 22.6379 12.0416 22.6127L11.8872 22.0844C11.7769 21.7071 11.6583 21.3322 11.5647 20.95C11.0099 18.773 11.3061 16.6841 12.4403 14.7325C15.2596 9.92186 20.6025 7.69566 26.0605 9.05826C29.7083 9.96702 31.9725 11.8809 32.7911 14.6816Z" fill="#E6F0F0"/>
<path d="M53.4668 13.335C54.0828 12.719 54.9424 12.2396 56.0423 11.9134C57.403 11.5066 58.8595 11.6509 60.3786 12.333C63.1228 13.5708 64.1954 15.3664 63.8527 18.1638C63.7169 19.2734 63.2206 20.2099 62.7078 21.0562C62.6944 21.0763 62.681 21.0897 62.661 21.1031C62.6576 21.1131 62.6476 21.1231 62.6375 21.1332L62.4266 21.3441C62.276 21.4947 62.1287 21.6487 61.9714 21.7927C61.081 22.623 60.011 23.026 58.7881 22.9948C55.7677 22.9069 53.3189 20.9468 52.5459 17.9979C52.0283 16.0275 52.3487 14.4531 53.4668 13.335Z" fill="#E6F0F0"/>
<path d="M47.9901 52.4401L51.3501 40.7734H11.4268L14.8334 52.5334C15.2963 52.6077 15.7646 52.6428 16.2334 52.6384C20.0018 52.6384 20.0018 50.3051 23.7701 50.3051C27.5384 50.3051 27.5384 52.6384 31.3068 52.6384C35.0751 52.6384 35.0751 50.3051 38.8551 50.3051C42.6351 50.3051 42.6234 52.6384 46.4034 52.6384C46.9385 52.638 47.4714 52.5714 47.9901 52.4401Z" fill="white"/>
<path d="M31.5172 6.13574C28.6706 15.7257 23.0006 26.8441 14.3789 34.5674L47.6522 34.4741C47.6522 34.4741 47.1272 16.0407 31.5172 6.13574Z" fill="white" stroke="#1F2533" stroke-width="1.5" stroke-linecap="round" stroke-linejoin="round"/>
<path d="M30.4084 9.53074C39.0301 18.6657 39.9751 28.1974 38.0501 34.4741H47.6518C47.4301 20.7074 36.6501 9.71741 31.5168 6.13574C31.5168 6.13574 30.7001 8.72574 30.4084 9.53074Z" fill="#FFE6D1"/>
<path d="M12.5818 44.775L11.4268 40.75H51.3501L50.1951 44.775H12.5818Z" fill="#FFCB9E"/>
<path d="M30.0583 40.7501V34.6484" stroke="#1F2533" stroke-width="2" stroke-linecap="round" stroke-linejoin="round"/>
<path d="M8.6499 55.4971C12.4182 55.4971 12.4182 57.8304 16.1982 57.8304C19.9782 57.8304 19.9666 55.4971 23.7349 55.4971C27.5032 55.4971 27.5032 57.8304 31.2716 57.8304C35.0399 57.8304 35.0399 55.4971 38.8199 55.4971" stroke="#1F2533" stroke-width="2" stroke-linecap="round" stroke-linejoin="round"/>
<path d="M31.5165 6.13574C28.6698 15.7257 22.9998 26.8441 14.3782 34.5674L47.6515 34.4741C47.6515 34.4741 47.1265 16.0407 31.5165 6.13574Z" stroke="#1F2533" stroke-width="2" stroke-linecap="round" stroke-linejoin="round"/>
<path d="M47.9901 52.4401L51.3501 40.7734H11.4268L14.8334 52.5334C15.2963 52.6077 15.7646 52.6428 16.2334 52.6384C20.0018 52.6384 20.0018 50.3051 23.7701 50.3051C27.5384 50.3051 27.5384 52.6384 31.3068 52.6384C35.0751 52.6384 35.0751 50.3051 38.8551 50.3051C42.6351 50.3051 42.6234 52.6384 46.4034 52.6384C46.9385 52.638 47.4714 52.5714 47.9901 52.4401Z" stroke="#1F2533" stroke-width="2" stroke-linecap="round" stroke-linejoin="round"/>
<path d="M12.5815 44.7754H50.1949" stroke="#1F2533" stroke-width="2" stroke-linecap="round" stroke-linejoin="round"/>
</svg>
