<svg width="64" height="64" viewBox="0 0 64 64" fill="none" xmlns="http://www.w3.org/2000/svg">
<path d="M28.7919 45.0183C28.4097 46.4917 27.5395 47.9753 26.1716 49.4409C24.4823 51.259 22.1605 52.3318 19.2681 52.6498C14.038 53.2161 10.8319 51.4613 8.87034 46.9441C8.09197 45.1525 8.00999 43.3022 8.0328 41.5731C8.03521 41.531 8.04352 41.499 8.06188 41.461C8.05806 41.443 8.06429 41.4189 8.07053 41.3949L8.2014 40.8904C8.29488 40.5301 8.38038 40.1676 8.48981 39.8114C9.09549 37.7721 10.3503 36.2173 12.2199 35.181C16.8474 32.638 22.2724 33.4214 26.0489 37.1788C28.5738 39.6884 29.4857 42.3437 28.7919 45.0183Z" fill="#E6F0F0"/>
<path d="M48.1009 8.60247C48.6845 8.00334 49.499 7.53702 50.5412 7.21976C51.8304 6.82402 53.2105 6.96436 54.6498 7.62785C57.2499 8.83186 58.2662 10.5784 57.9414 13.2993C57.8128 14.3786 57.3426 15.2895 56.8567 16.1127C56.844 16.1322 56.8313 16.1452 56.8123 16.1583C56.8091 16.168 56.7996 16.1778 56.7901 16.1876L56.5903 16.3927C56.4475 16.5392 56.308 16.689 56.1589 16.8291C55.3153 17.6367 54.3015 18.0286 53.1428 17.9984C50.281 17.9129 47.9607 16.0063 47.2283 13.138C46.7379 11.2214 47.0415 9.69002 48.1009 8.60247Z" fill="#E6F0F0"/>
<path d="M38.0015 27.0488H26.009C22.4192 27.0488 19.509 29.959 19.509 33.5488V48.8672C19.509 52.457 22.4192 55.3672 26.009 55.3672H38.0015C41.5914 55.3672 44.5015 52.457 44.5015 48.8672V33.5488C44.5015 29.959 41.5914 27.0488 38.0015 27.0488Z" fill="white"/>
<path d="M36.8965 55.6922V51.868C39.3882 51.868 41.0998 51.0772 41.0998 48.618V33.8305C41.0998 31.3388 39.3882 30.3855 36.8965 30.3855V27.0488C41.8798 27.0488 44.4798 28.8472 44.4798 33.8305V48.5855C44.4907 53.5688 41.8798 55.6922 36.8965 55.6922Z" fill="#FFE6D1"/>
<path d="M38.0015 27.0488H26.009C22.4192 27.0488 19.509 29.959 19.509 33.5488V48.8672C19.509 52.457 22.4192 55.3672 26.009 55.3672H38.0015C41.5914 55.3672 44.5015 52.457 44.5015 48.8672V33.5488C44.5015 29.959 41.5914 27.0488 38.0015 27.0488Z" stroke="#1F2533" stroke-width="2" stroke-miterlimit="10"/>
<path d="M25.4675 41.208H27.5475" stroke="#1F2533" stroke-width="2" stroke-miterlimit="10" stroke-linecap="round"/>
<path d="M25.4675 36.0078H29.6275" stroke="#1F2533" stroke-width="2" stroke-miterlimit="10" stroke-linecap="round"/>
<path d="M25.4675 46.4199H29.6275" stroke="#1F2533" stroke-width="2" stroke-miterlimit="10" stroke-linecap="round"/>
<path d="M38.2509 20.7981C38.3208 20.0245 38.2235 19.2448 37.9655 18.5121C37.7076 17.7794 37.2951 17.1107 36.7559 16.5514C35.9434 15.6848 34.4268 15.0131 34.4268 13.9406C34.4325 13.4758 34.5129 13.0149 34.6651 12.5756C34.8391 12.0852 34.927 11.5685 34.9251 11.0481C34.862 10.3158 34.5265 9.63382 33.985 9.13689C33.4434 8.63996 32.7351 8.36426 32.0001 8.36426C31.2651 8.36426 30.5568 8.63996 30.0152 9.13689C29.4737 9.63382 29.1382 10.3158 29.0751 11.0481C29.0731 11.5685 29.1611 12.0852 29.3351 12.5756C29.4872 13.0149 29.5677 13.4758 29.5734 13.9406C29.5734 15.0239 28.0568 15.6848 27.2443 16.5514C26.7051 17.1107 26.2926 17.7794 26.0347 18.5121C25.7767 19.2448 25.6794 20.0245 25.7493 20.7981" fill="white"/>
<path d="M38.2509 20.7981C38.3208 20.0245 38.2235 19.2448 37.9655 18.5121C37.7076 17.7794 37.2951 17.1107 36.7559 16.5514C35.9434 15.6848 34.4268 15.0131 34.4268 13.9406C34.4325 13.4758 34.5129 13.0149 34.6651 12.5756C34.8391 12.0852 34.927 11.5685 34.9251 11.0481C34.862 10.3158 34.5265 9.63382 33.985 9.13689C33.4434 8.63996 32.7351 8.36426 32.0001 8.36426C31.2651 8.36426 30.5568 8.63996 30.0152 9.13689C29.4737 9.63382 29.1382 10.3158 29.0751 11.0481C29.0731 11.5685 29.1611 12.0852 29.3351 12.5756C29.4872 13.0149 29.5677 13.4758 29.5734 13.9406C29.5734 15.0239 28.0568 15.6848 27.2443 16.5514C26.7051 17.1107 26.2926 17.7794 26.0347 18.5121C25.7767 19.2448 25.6794 20.0245 25.7493 20.7981" stroke="#1F2533" stroke-width="2" stroke-miterlimit="10"/>
<path d="M39.7458 20.7988H24.2542C23.3567 20.7988 22.6292 21.5264 22.6292 22.4238V25.4247C22.6292 26.3221 23.3567 27.0497 24.2542 27.0497H39.7458C40.6433 27.0497 41.3708 26.3221 41.3708 25.4247V22.4238C41.3708 21.5264 40.6433 20.7988 39.7458 20.7988Z" fill="#FFCB9E" stroke="#1F2533" stroke-width="2" stroke-miterlimit="10"/>
</svg>
