<svg width="64" height="64" viewBox="0 0 64 64" fill="none" xmlns="http://www.w3.org/2000/svg">
<path d="M21.6468 48.9901C20.4601 49.9434 18.876 50.6134 16.9035 50.9716C14.4627 51.4205 11.9598 50.8939 9.45026 49.4211C4.91763 46.7509 3.39469 43.4284 4.52007 38.6339C4.96609 36.7322 6.00563 35.1994 7.05681 33.8263C7.0839 33.794 7.1097 33.7733 7.14711 33.7538C7.15485 33.737 7.1742 33.7215 7.19355 33.7059L7.59987 33.3795C7.8901 33.1464 8.17517 32.9068 8.47572 32.6865C10.1797 31.4128 12.1148 30.9155 14.2332 31.2013C19.4634 31.9263 23.3461 35.7953 24.1301 41.0645C24.6559 44.5854 23.801 47.2596 21.6468 48.9901Z" fill="#E6F0F0"/>
<path d="M49.1033 3.56445C49.6882 2.97954 50.5045 2.52427 51.549 2.21454C52.8411 1.82819 54.2243 1.96521 55.6667 2.61295C58.2727 3.7884 59.2911 5.49352 58.9657 8.14987C58.8368 9.20352 58.3655 10.0928 57.8786 10.8965C57.8659 10.9156 57.8531 10.9283 57.8341 10.941C57.8309 10.9505 57.8213 10.9601 57.8118 10.9696L57.6115 11.1699C57.4685 11.3129 57.3286 11.4591 57.1792 11.5958C56.3337 12.3843 55.3177 12.767 54.1565 12.7374C51.2883 12.654 48.9628 10.7926 48.2288 7.99233C47.7373 6.12122 48.0416 4.6262 49.1033 3.56445Z" fill="#E6F0F0"/>
<path d="M41.6416 17.9922H22.3474C18.7576 17.9922 15.8474 20.9023 15.8474 24.4922V48.098C15.8474 51.6879 18.7576 54.598 22.3474 54.598H41.6416C45.2314 54.598 48.1416 51.6879 48.1416 48.098V24.4922C48.1416 20.9023 45.2314 17.9922 41.6416 17.9922Z" fill="white"/>
<path d="M39.1064 54.5987V50.9804C42.1939 51.1754 44.1873 50.1679 44.1873 47.5137V25.3379C44.1873 22.6729 42.4431 21.5246 39.1064 21.7087V18.2421C45.8339 17.7004 47.5889 20.7987 47.5889 25.3379V47.5137C47.5889 52.0421 45.3248 54.8587 39.1064 54.5987Z" fill="#FFE6D1"/>
<path d="M41.6416 17.9922H22.3474C18.7576 17.9922 15.8474 20.9023 15.8474 24.4922V48.098C15.8474 51.6879 18.7576 54.598 22.3474 54.598H41.6416C45.2314 54.598 48.1416 51.6879 48.1416 48.098V24.4922C48.1416 20.9023 45.2314 17.9922 41.6416 17.9922Z" stroke="#1F2533" stroke-width="2" stroke-miterlimit="10"/>
<path d="M24.4166 50.2982H22.2499C21.6753 50.2982 21.1242 50.0699 20.7179 49.6636C20.3115 49.2572 20.0833 48.7061 20.0833 48.1315V45.9648" stroke="#1F2533" stroke-width="2" stroke-linecap="round" stroke-linejoin="round"/>
<path d="M41.6634 9.37988H22.3259C20.531 9.37988 19.0759 10.835 19.0759 12.6299V14.7424C19.0759 16.5373 20.531 17.9924 22.3259 17.9924H41.6634C43.4583 17.9924 44.9134 16.5373 44.9134 14.7424V12.6299C44.9134 10.835 43.4583 9.37988 41.6634 9.37988Z" fill="#FFFAF5" stroke="#1F2533" stroke-width="2" stroke-miterlimit="10"/>
<path d="M23.3875 12.6084V14.7642" stroke="#1F2533" stroke-width="2" stroke-miterlimit="10" stroke-linecap="round"/>
<path d="M27.6992 12.6084V14.7642" stroke="#1F2533" stroke-width="2" stroke-miterlimit="10" stroke-linecap="round"/>
<path d="M32 12.6084V14.7642" stroke="#1F2533" stroke-width="2" stroke-miterlimit="10" stroke-linecap="round"/>
<path d="M36.3115 12.6084V14.7642" stroke="#1F2533" stroke-width="2" stroke-miterlimit="10" stroke-linecap="round"/>
<path d="M40.6125 12.6084V14.7642" stroke="#1F2533" stroke-width="2" stroke-miterlimit="10" stroke-linecap="round"/>
<path d="M37.3843 34.1463H34.156V30.918H29.8443V34.1463H26.616V38.4471H29.8443V41.6863H34.156V38.4471H37.3843V34.1463Z" fill="#FFCB9E" stroke="#1F2533" stroke-width="2" stroke-miterlimit="10"/>
</svg>
