<svg width="64" height="64" viewBox="0 0 64 64" fill="none" xmlns="http://www.w3.org/2000/svg">
<path d="M5.58154 55.7754H56.5815" stroke="#1F2533" stroke-width="2" stroke-linejoin="round"/>
<path d="M1 55.7754H3" stroke="#1F2533" stroke-width="2" stroke-linejoin="round"/>
<path d="M58.5 55.7754H62.5" stroke="#1F2533" stroke-width="2" stroke-linejoin="round"/>
<path d="M35.6725 15.3261C36.1235 16.869 36.1375 18.6852 35.6906 20.7545C35.1431 23.3174 33.6186 25.5469 31.1682 27.4009C26.7325 30.7454 22.8757 30.8898 18.6519 27.8558C16.9764 26.6526 15.9005 25.0194 14.9852 23.4393C14.9646 23.3998 14.9548 23.3663 14.9509 23.3219C14.9377 23.3076 14.9303 23.2824 14.923 23.2572L14.7686 22.729C14.6583 22.3516 14.5396 21.9768 14.446 21.5945C13.8913 19.4176 14.1874 17.3286 15.3216 15.377C18.1409 10.5664 23.4838 8.34019 28.9418 9.70279C32.5897 10.6115 34.8538 12.5255 35.6725 15.3261Z" fill="#E6F0F0"/>
<path d="M50.1802 8.35061C50.7962 7.73465 51.6558 7.25523 52.7557 6.92905C54.1164 6.5222 55.5729 6.66649 57.092 7.34861C59.8362 8.58644 60.9088 10.3821 60.566 13.1794C60.4303 14.289 59.934 15.2255 59.4212 16.0718C59.4078 16.0919 59.3944 16.1053 59.3743 16.1187C59.371 16.1287 59.3609 16.1388 59.3509 16.1488L59.14 16.3597C58.9894 16.5103 58.8421 16.6643 58.6847 16.8083C57.7944 17.6386 56.7244 18.0416 55.5015 18.0105C52.4811 17.9226 50.0323 15.9625 49.2593 13.0135C48.7417 11.0431 49.0621 9.46872 50.1802 8.35061Z" fill="#E6F0F0"/>
<path d="M16.9866 30.7167C17.8515 27.5298 19.7413 24.7161 22.3643 22.7101C24.9873 20.7041 28.1977 19.6172 31.4999 19.6172C34.8021 19.6172 38.0125 20.7041 40.6355 22.7101C43.2585 24.7161 45.1483 27.5298 46.0132 30.7167" fill="white"/>
<path d="M16.9866 30.7167C17.8515 27.5298 19.7413 24.7161 22.3643 22.7101C24.9873 20.7041 28.1977 19.6172 31.4999 19.6172C34.8021 19.6172 38.0125 20.7041 40.6355 22.7101C43.2585 24.7161 45.1483 27.5298 46.0132 30.7167" stroke="#1F2533" stroke-width="1.5" stroke-miterlimit="10"/>
<path d="M31.5 8.21094H39.025L37.1467 11.0343L39.025 13.8459H31.5V8.21094Z" fill="#FFCB9E" stroke="#1F2533" stroke-width="2" stroke-linejoin="round"/>
<path d="M36.7851 30.7156C37.2518 26.574 35.8751 21.3823 29.7151 19.7373C38.2201 18.174 44.2868 24.3223 46.0484 30.7156" fill="#FFE6D1"/>
<path d="M16.9866 30.7167C17.8515 27.5298 19.7413 24.7161 22.3643 22.7101C24.9873 20.7041 28.1977 19.6172 31.4999 19.6172C34.8021 19.6172 38.0125 20.7041 40.6355 22.7101C43.2585 24.7161 45.1483 27.5298 46.0132 30.7167" stroke="#1F2533" stroke-width="2" stroke-miterlimit="10"/>
<path d="M49.0465 30.7158H13.9531V35.7325H49.0465V30.7158Z" fill="white" stroke="#1F2533" stroke-width="2" stroke-linejoin="round"/>
<path d="M31.5 19.6224V13.7891" stroke="#1F2533" stroke-width="2" stroke-miterlimit="10"/>
<path d="M21.4783 35.7334H16.4617V50.7717H21.4783V35.7334Z" fill="#FFE6D1"/>
<path d="M46.5382 35.7334H41.5215V50.7717H46.5382V35.7334Z" fill="#FFE6D1"/>
<path d="M34.0081 35.7334H28.9915V50.7717H34.0081V35.7334Z" fill="#FFE6D1"/>
<path d="M21.4783 35.7334H16.4617V50.7717H21.4783V35.7334Z" stroke="#1F2533" stroke-width="2" stroke-miterlimit="10"/>
<path d="M46.5382 35.7334H41.5215V50.7717H46.5382V35.7334Z" stroke="#1F2533" stroke-width="2" stroke-miterlimit="10"/>
<path d="M34.0081 35.7334H28.9915V50.7717H34.0081V35.7334Z" stroke="#1F2533" stroke-width="2" stroke-miterlimit="10"/>
<path d="M50.925 55.7881H12.075V50.7715H21.6883H50.925V55.7881Z" fill="white" stroke="#1F2533" stroke-width="2" stroke-linejoin="round"/>
</svg>
