<svg width="64" height="64" viewBox="0 0 64 64" fill="none" xmlns="http://www.w3.org/2000/svg">
<path d="M60.91 19.9982C61.3371 21.4593 61.3504 23.1792 60.9271 25.1388C60.4087 27.5657 58.965 29.6771 56.6446 31.4327C52.4441 34.5999 48.7917 34.7366 44.792 31.8635C43.2052 30.7241 42.1864 29.1775 41.3197 27.6812C41.3002 27.6438 41.2909 27.612 41.2872 27.57C41.2746 27.5564 41.2677 27.5326 41.2607 27.5088L41.1145 27.0085C41.01 26.6512 40.8977 26.2962 40.809 25.9343C40.2837 23.8727 40.5642 21.8946 41.6382 20.0464C44.308 15.4909 49.3677 13.3827 54.5362 14.6731C57.9907 15.5336 60.1348 17.3461 60.91 19.9982Z" fill="#E6F0F0"/>
<path d="M3.67119 4.56445C4.25611 3.97954 5.0724 3.52427 6.11688 3.21454C7.40898 2.82819 8.79212 2.96521 10.2346 3.61295C12.8405 4.7884 13.859 6.49352 13.5336 9.14987C13.4047 10.2035 12.9334 11.0928 12.4465 11.8965C12.4337 11.9156 12.421 11.9283 12.4019 11.941C12.3988 11.9505 12.3892 11.9601 12.3797 11.9696L12.1794 12.1699C12.0364 12.3129 11.8965 12.4591 11.7471 12.5958C10.9016 13.3843 9.88556 13.767 8.72432 13.7374C5.85615 13.654 3.53072 11.7926 2.79668 8.99233C2.30521 7.12122 2.60944 5.6262 3.67119 4.56445Z" fill="#E6F0F0"/>
<path d="M49.8885 25.1961C48.4751 21.0343 45.7062 17.467 42.025 15.0653C38.3438 12.6637 33.9633 11.5666 29.5847 11.9498C25.2061 12.3329 21.0827 14.1741 17.8746 17.1786C14.6665 20.183 12.5592 24.177 11.8901 28.5211L49.8885 25.1961Z" fill="white" stroke="#1F2533" stroke-width="2" stroke-linejoin="round"/>
<path d="M24.2448 27.4513C24.1865 18.8646 26.3448 12.2846 29.5881 11.9696C32.8315 11.6546 36.0981 17.8029 37.5448 26.2963" fill="#FFE6D1"/>
<path d="M24.2448 27.4513C24.1865 18.8646 26.3448 12.2846 29.5881 11.9696C32.8315 11.6546 36.0981 17.8029 37.5448 26.2963" stroke="#1F2533" stroke-width="2" stroke-linejoin="round"/>
<path d="M30.895 26.8799C31.3734 32.4215 31.945 38.8499 32.3767 43.8082" stroke="#1F2533" stroke-width="2" stroke-linejoin="round"/>
<path d="M33.2285 53.8301L33.5902 57.7967" stroke="#1F2533" stroke-width="2" stroke-linejoin="round"/>
<path d="M16.335 56.5706H18.7383L21.865 51.1689" stroke="#1F2533" stroke-width="2" stroke-linecap="round" stroke-linejoin="round"/>
<path d="M44.7085 51.1689L47.8352 56.5706H50.2385" stroke="#1F2533" stroke-width="2" stroke-linecap="round" stroke-linejoin="round"/>
<path d="M29.3318 9.09961L29.5885 11.9696" stroke="#1F2533" stroke-width="2" stroke-linecap="round" stroke-linejoin="round"/>
<path d="M49.8885 25.2108C48.4751 21.0489 45.7062 17.4816 42.025 15.08C38.3438 12.6783 33.9633 11.5813 29.5847 11.9644C25.2061 12.3476 21.0827 14.1887 17.8746 17.1932C14.6665 20.1977 12.5592 24.1917 11.8901 28.5358L49.8885 25.2108Z" stroke="#1F2533" stroke-width="2" stroke-linejoin="round"/>
<path d="M21.8768 51.1459L12.2051 41.4742C11.9251 41.1942 11.7678 40.8144 11.7678 40.4184C11.7678 40.0224 11.9251 39.6426 12.2051 39.3626L13.2551 38.3009C13.5381 38.0265 13.9168 37.873 14.3109 37.873C14.7051 37.873 15.0838 38.0265 15.3668 38.3009L23.7318 46.6659H48.7451C49.1402 46.669 49.5183 46.8273 49.7977 47.1067C50.0771 47.3861 50.2354 47.7641 50.2384 48.1592V49.6526C50.2384 50.0486 50.0811 50.4285 49.801 50.7085C49.521 50.9886 49.1412 51.1459 48.7451 51.1459H21.8768Z" fill="#FFCB9E" stroke="#1F2533" stroke-width="2" stroke-linecap="round" stroke-linejoin="round"/>
</svg>
